<svg xmlns="http://www.w3.org/2000/svg" width="588" height="310" viewBox="0 0 588 310">
<style>text{font-family:Arial,sans-serif;fill:#222}.title{font-size:11px;font-weight:bold}.head{font-size:9px;font-weight:bold}.label{font-size:9px}.cell{font-size:14px;font-weight:bold}</style>
<text x="302.0" y="14" text-anchor="middle" class="title">GPT-OSS-20B</text>
<text x="206.0" y="28" text-anchor="middle" class="title">DOH</text>
<text x="138.5" y="40" text-anchor="middle" class="head">Pair</text>
<text x="183.5" y="40" text-anchor="middle" class="head">Set</text>
<text x="228.5" y="40" text-anchor="middle" class="head">List</text>
<text x="273.5" y="40" text-anchor="middle" class="head">Point</text>
<text x="398.0" y="28" text-anchor="middle" class="title">DCH</text>
<text x="330.5" y="40" text-anchor="middle" class="head">Pair</text>
<text x="375.5" y="40" text-anchor="middle" class="head">Set</text>
<text x="420.5" y="40" text-anchor="middle" class="head">List</text>
<text x="465.5" y="40" text-anchor="middle" class="head">Point</text>
<text x="108" y="60.0" text-anchor="end" class="label">low</text>
<rect x="116" y="42" width="43" height="26" fill="#7cb9e3" stroke="#fff"/>
<text x="138.5" y="61" text-anchor="middle" class="cell">↓*</text>
<rect x="161" y="42" width="43" height="26" fill="#cee5f5" stroke="#fff"/>
<text x="183.5" y="61" text-anchor="middle" class="cell">↓*</text>
<rect x="206" y="42" width="43" height="26" fill="#d8eaf7" stroke="#fff"/>
<text x="228.5" y="61" text-anchor="middle" class="cell">↓*</text>
<rect x="251" y="42" width="43" height="26" fill="#d6e9f6" stroke="#fff"/>
<text x="273.5" y="61" text-anchor="middle" class="cell">↓*</text>
<rect x="308" y="42" width="43" height="26" fill="#50a1da" stroke="#fff"/>
<text x="330.5" y="61" text-anchor="middle" class="cell">↓*</text>
<rect x="353" y="42" width="43" height="26" fill="#9ecbeb" stroke="#fff"/>
<text x="375.5" y="61" text-anchor="middle" class="cell">↓*</text>
<rect x="398" y="42" width="43" height="26" fill="#d7eaf7" stroke="#fff"/>
<text x="420.5" y="61" text-anchor="middle" class="cell">↓*</text>
<rect x="443" y="42" width="43" height="26" fill="#65addf" stroke="#fff"/>
<text x="465.5" y="61" text-anchor="middle" class="cell">↓*</text>
<text x="108" y="88.0" text-anchor="end" class="label">medium</text>
<rect x="116" y="70" width="43" height="26" fill="#cbe3f4" stroke="#fff"/>
<text x="138.5" y="89" text-anchor="middle" class="cell">↓*</text>
<rect x="161" y="70" width="43" height="26" fill="#a2cdeb" stroke="#fff"/>
<text x="183.5" y="89" text-anchor="middle" class="cell">↓*</text>
<rect x="206" y="70" width="43" height="26" fill="#c9e2f4" stroke="#fff"/>
<text x="228.5" y="89" text-anchor="middle" class="cell">↓*</text>
<rect x="251" y="70" width="43" height="26" fill="#d9ebf7" stroke="#fff"/>
<text x="273.5" y="89" text-anchor="middle" class="cell">↓</text>
<rect x="308" y="70" width="43" height="26" fill="#d9ebf7" stroke="#fff"/>
<text x="330.5" y="89" text-anchor="middle" class="cell">↓</text>
<rect x="353" y="70" width="43" height="26" fill="#a3ceec" stroke="#fff"/>
<text x="375.5" y="89" text-anchor="middle" class="cell">↓*</text>
<rect x="398" y="70" width="43" height="26" fill="#b8d9f0" stroke="#fff"/>
<text x="420.5" y="89" text-anchor="middle" class="cell">↓*</text>
<rect x="443" y="70" width="43" height="26" fill="#6db1e0" stroke="#fff"/>
<text x="465.5" y="89" text-anchor="middle" class="cell">↓*</text>
<text x="108" y="116.0" text-anchor="end" class="label">high</text>
<rect x="116" y="98" width="43" height="26" fill="#faecd5" stroke="#fff"/>
<text x="138.5" y="117" text-anchor="middle" class="cell">↑*</text>
<rect x="161" y="98" width="43" height="26" fill="#d9ebf7" stroke="#fff"/>
<text x="183.5" y="117" text-anchor="middle" class="cell">↓</text>
<rect x="206" y="98" width="43" height="26" fill="#eeeeee" stroke="#fff"/>
<rect x="251" y="98" width="43" height="26" fill="#fbedd9" stroke="#fff"/>
<text x="273.5" y="117" text-anchor="middle" class="cell">=</text>
<rect x="308" y="98" width="43" height="26" fill="#fbedd9" stroke="#fff"/>
<text x="330.5" y="117" text-anchor="middle" class="cell">=</text>
<rect x="353" y="98" width="43" height="26" fill="#d8eaf7" stroke="#fff"/>
<text x="375.5" y="117" text-anchor="middle" class="cell">↓*</text>
<rect x="398" y="98" width="43" height="26" fill="#eeeeee" stroke="#fff"/>
<rect x="443" y="98" width="43" height="26" fill="#cae2f4" stroke="#fff"/>
<text x="465.5" y="117" text-anchor="middle" class="cell">↓*</text>
<text x="302.0" y="178" text-anchor="middle" class="title">Qwen3-32B</text>
<text x="206.0" y="192" text-anchor="middle" class="title">DOH</text>
<text x="138.5" y="204" text-anchor="middle" class="head">Pair</text>
<text x="183.5" y="204" text-anchor="middle" class="head">Set</text>
<text x="228.5" y="204" text-anchor="middle" class="head">List</text>
<text x="273.5" y="204" text-anchor="middle" class="head">Point</text>
<text x="398.0" y="192" text-anchor="middle" class="title">DCH</text>
<text x="330.5" y="204" text-anchor="middle" class="head">Pair</text>
<text x="375.5" y="204" text-anchor="middle" class="head">Set</text>
<text x="420.5" y="204" text-anchor="middle" class="head">List</text>
<text x="465.5" y="204" text-anchor="middle" class="head">Point</text>
<text x="108" y="224.0" text-anchor="end" class="label">off</text>
<rect x="116" y="206" width="43" height="26" fill="#80bbe4" stroke="#fff"/>
<text x="138.5" y="225" text-anchor="middle" class="cell">↓*</text>
<rect x="161" y="206" width="43" height="26" fill="#d6e9f6" stroke="#fff"/>
<text x="183.5" y="225" text-anchor="middle" class="cell">↓*</text>
<rect x="206" y="206" width="43" height="26" fill="#d3e7f6" stroke="#fff"/>
<text x="228.5" y="225" text-anchor="middle" class="cell">↓*</text>
<rect x="251" y="206" width="43" height="26" fill="#cde4f5" stroke="#fff"/>
<text x="273.5" y="225" text-anchor="middle" class="cell">↓*</text>
<rect x="308" y="206" width="43" height="26" fill="#6fb2e1" stroke="#fff"/>
<text x="330.5" y="225" text-anchor="middle" class="cell">↓*</text>
<rect x="353" y="206" width="43" height="26" fill="#d3e8f6" stroke="#fff"/>
<text x="375.5" y="225" text-anchor="middle" class="cell">↓*</text>
<rect x="398" y="206" width="43" height="26" fill="#d4e8f6" stroke="#fff"/>
<text x="420.5" y="225" text-anchor="middle" class="cell">↓*</text>
<rect x="443" y="206" width="43" height="26" fill="#7dbae4" stroke="#fff"/>
<text x="465.5" y="225" text-anchor="middle" class="cell">↓*</text>
<text x="108" y="252.0" text-anchor="end" class="label">on</text>
<rect x="116" y="234" width="43" height="26" fill="#73b4e2" stroke="#fff"/>
<text x="138.5" y="253" text-anchor="middle" class="cell">↓*</text>
<rect x="161" y="234" width="43" height="26" fill="#d4e8f6" stroke="#fff"/>
<text x="183.5" y="253" text-anchor="middle" class="cell">↓*</text>
<rect x="206" y="234" width="43" height="26" fill="#d3e7f6" stroke="#fff"/>
<text x="228.5" y="253" text-anchor="middle" class="cell">↓*</text>
<rect x="251" y="234" width="43" height="26" fill="#d0e6f5" stroke="#fff"/>
<text x="273.5" y="253" text-anchor="middle" class="cell">↓*</text>
<rect x="308" y="234" width="43" height="26" fill="#63abde" stroke="#fff"/>
<text x="330.5" y="253" text-anchor="middle" class="cell">↓*</text>
<rect x="353" y="234" width="43" height="26" fill="#d1e6f5" stroke="#fff"/>
<text x="375.5" y="253" text-anchor="middle" class="cell">↓*</text>
<rect x="398" y="234" width="43" height="26" fill="#d3e8f6" stroke="#fff"/>
<text x="420.5" y="253" text-anchor="middle" class="cell">↓*</text>
<rect x="443" y="234" width="43" height="26" fill="#83bde5" stroke="#fff"/>
<text x="465.5" y="253" text-anchor="middle" class="cell">↓*</text>
<defs><linearGradient id="gradient" x1="0" y1="1" x2="0" y2="0"><stop offset="0%" stop-color="#2e8fd3"/><stop offset="50%" stop-color="#f5f5f5"/><stop offset="100%" stop-color="#e89d2a"/></linearGradient></defs>
<rect x="536" y="18" width="10" height="274" fill="url(#gradient)" stroke="#bbb"/>
<text x="552" y="22" text-anchor="start" class="label">+300</text>
<text x="552" y="158.0" text-anchor="start" class="label">0</text>
<text x="552" y="295" text-anchor="start" class="label">−300</text>
<text x="526" y="155.0" text-anchor="middle" transform="rotate(-90 526 155.0)" class="label">signed −log10(Holm p)</text>
</svg>
